<mxfile host="app.diagrams.net" agent="Mozilla/5.0 (Windows NT 10.0; Win64; x64) AppleWebKit/537.36 (KHTML, like Gecko) Chrome/134.0.0.0 Safari/537.36" version="26.1.2">
  <diagram name="Page-1" id="7e_-g0Qa9t0XYljBs1u8">
    <mxGraphModel dx="1434" dy="1844" grid="1" gridSize="10" guides="1" tooltips="1" connect="1" arrows="1" fold="1" page="1" pageScale="1" pageWidth="850" pageHeight="1100" math="0" shadow="0">
      <root>
        <mxCell id="0" />
        <mxCell id="1" parent="0" />
        <mxCell id="edX3QLqVGS8SwnU8owkq-13" style="edgeStyle=orthogonalEdgeStyle;rounded=0;orthogonalLoop=1;jettySize=auto;html=1;entryX=0.5;entryY=0;entryDx=0;entryDy=0;endArrow=none;startFill=0;" edge="1" parent="1" source="edX3QLqVGS8SwnU8owkq-1" target="edX3QLqVGS8SwnU8owkq-12">
          <mxGeometry relative="1" as="geometry" />
        </mxCell>
        <mxCell id="edX3QLqVGS8SwnU8owkq-1" value="&lt;u&gt;Student&lt;/u&gt;" style="rounded=0;whiteSpace=wrap;html=1;fillStyle=solid;fillColor=none;" vertex="1" parent="1">
          <mxGeometry x="100" y="90" width="110" height="30" as="geometry" />
        </mxCell>
        <mxCell id="edX3QLqVGS8SwnU8owkq-2" value="" style="endArrow=classic;html=1;rounded=1;curved=0;exitX=0.75;exitY=0;exitDx=0;exitDy=0;entryX=1;entryY=0;entryDx=0;entryDy=0;" edge="1" parent="1" source="edX3QLqVGS8SwnU8owkq-1" target="edX3QLqVGS8SwnU8owkq-1">
          <mxGeometry width="50" height="50" relative="1" as="geometry">
            <mxPoint x="180" y="70" as="sourcePoint" />
            <mxPoint x="210" y="80" as="targetPoint" />
            <Array as="points">
              <mxPoint x="180" y="40" />
              <mxPoint x="200" y="20" />
              <mxPoint x="230" y="50" />
            </Array>
          </mxGeometry>
        </mxCell>
        <mxCell id="edX3QLqVGS8SwnU8owkq-3" value="1: proveriKrediti()" style="text;html=1;align=center;verticalAlign=middle;resizable=0;points=[];autosize=1;strokeColor=none;fillColor=none;" vertex="1" parent="1">
          <mxGeometry x="150" y="-12" width="120" height="30" as="geometry" />
        </mxCell>
        <mxCell id="edX3QLqVGS8SwnU8owkq-4" value="&lt;u&gt;Profesor&lt;/u&gt;" style="rounded=0;whiteSpace=wrap;html=1;fillStyle=solid;fillColor=none;" vertex="1" parent="1">
          <mxGeometry x="370" y="90" width="110" height="30" as="geometry" />
        </mxCell>
        <mxCell id="edX3QLqVGS8SwnU8owkq-5" value="" style="endArrow=none;html=1;rounded=0;exitX=1;exitY=0.5;exitDx=0;exitDy=0;entryX=0;entryY=0.5;entryDx=0;entryDy=0;startFill=0;" edge="1" parent="1" source="edX3QLqVGS8SwnU8owkq-1" target="edX3QLqVGS8SwnU8owkq-4">
          <mxGeometry width="50" height="50" relative="1" as="geometry">
            <mxPoint x="330" y="310" as="sourcePoint" />
            <mxPoint x="380" y="260" as="targetPoint" />
            <Array as="points">
              <mxPoint x="270" y="105" />
            </Array>
          </mxGeometry>
        </mxCell>
        <mxCell id="edX3QLqVGS8SwnU8owkq-6" value="2: izberiProfesor()" style="text;html=1;align=center;verticalAlign=middle;resizable=0;points=[];autosize=1;strokeColor=none;fillColor=none;" vertex="1" parent="1">
          <mxGeometry x="220" y="40" width="120" height="30" as="geometry" />
        </mxCell>
        <mxCell id="edX3QLqVGS8SwnU8owkq-7" value="" style="endArrow=open;html=1;rounded=0;endFill=0;dashed=1;" edge="1" parent="1">
          <mxGeometry width="50" height="50" relative="1" as="geometry">
            <mxPoint x="310" y="119" as="sourcePoint" />
            <mxPoint x="240" y="119" as="targetPoint" />
          </mxGeometry>
        </mxCell>
        <mxCell id="edX3QLqVGS8SwnU8owkq-8" value="" style="endArrow=classic;html=1;rounded=0;" edge="1" parent="1">
          <mxGeometry width="50" height="50" relative="1" as="geometry">
            <mxPoint x="240" y="89" as="sourcePoint" />
            <mxPoint x="300" y="89" as="targetPoint" />
          </mxGeometry>
        </mxCell>
        <mxCell id="edX3QLqVGS8SwnU8owkq-10" value="4. birajPovtorno()" style="text;html=1;align=center;verticalAlign=middle;resizable=0;points=[];autosize=1;strokeColor=none;fillColor=none;" vertex="1" parent="1">
          <mxGeometry x="230" y="120" width="120" height="30" as="geometry" />
        </mxCell>
        <mxCell id="edX3QLqVGS8SwnU8owkq-11" value="3. izberiTema()" style="text;html=1;align=center;verticalAlign=middle;resizable=0;points=[];autosize=1;strokeColor=none;fillColor=none;" vertex="1" parent="1">
          <mxGeometry x="220" y="60" width="100" height="30" as="geometry" />
        </mxCell>
        <mxCell id="edX3QLqVGS8SwnU8owkq-12" value="&lt;u&gt;Sluzhba&lt;/u&gt;" style="rounded=0;whiteSpace=wrap;html=1;fillStyle=solid;fillColor=none;" vertex="1" parent="1">
          <mxGeometry x="100" y="220" width="110" height="30" as="geometry" />
        </mxCell>
        <mxCell id="edX3QLqVGS8SwnU8owkq-14" value="" style="endArrow=classic;html=1;rounded=0;" edge="1" parent="1">
          <mxGeometry width="50" height="50" relative="1" as="geometry">
            <mxPoint x="140" y="140" as="sourcePoint" />
            <mxPoint x="140" y="200" as="targetPoint" />
          </mxGeometry>
        </mxCell>
        <mxCell id="edX3QLqVGS8SwnU8owkq-15" value="5. popolniObrasci()" style="text;html=1;align=center;verticalAlign=middle;resizable=0;points=[];autosize=1;strokeColor=none;fillColor=none;" vertex="1" parent="1">
          <mxGeometry x="20" y="130" width="120" height="30" as="geometry" />
        </mxCell>
        <mxCell id="edX3QLqVGS8SwnU8owkq-16" value="6. ispratiObrasci()" style="text;html=1;align=center;verticalAlign=middle;resizable=0;points=[];autosize=1;strokeColor=none;fillColor=none;" vertex="1" parent="1">
          <mxGeometry x="20" y="150" width="120" height="30" as="geometry" />
        </mxCell>
        <mxCell id="edX3QLqVGS8SwnU8owkq-17" value="" style="endArrow=open;html=1;rounded=0;endFill=0;dashed=1;" edge="1" parent="1">
          <mxGeometry width="50" height="50" relative="1" as="geometry">
            <mxPoint x="170" y="200" as="sourcePoint" />
            <mxPoint x="170" y="140" as="targetPoint" />
          </mxGeometry>
        </mxCell>
        <mxCell id="edX3QLqVGS8SwnU8owkq-18" value="7. ispratiIzvestuvanje()" style="text;html=1;align=center;verticalAlign=middle;resizable=0;points=[];autosize=1;strokeColor=none;fillColor=none;rotation=60;" vertex="1" parent="1">
          <mxGeometry x="150" y="180" width="140" height="30" as="geometry" />
        </mxCell>
        <mxCell id="edX3QLqVGS8SwnU8owkq-19" value="" style="endArrow=classic;html=1;rounded=1;entryX=0.855;entryY=1.133;entryDx=0;entryDy=0;entryPerimeter=0;exitX=0.345;exitY=1.167;exitDx=0;exitDy=0;exitPerimeter=0;curved=0;" edge="1" parent="1">
          <mxGeometry width="50" height="50" relative="1" as="geometry">
            <mxPoint x="140.00000000000006" y="251.0200000000002" as="sourcePoint" />
            <mxPoint x="196.09999999999997" y="249.99999999999977" as="targetPoint" />
            <Array as="points">
              <mxPoint x="140" y="280" />
              <mxPoint x="162.05" y="296" />
              <mxPoint x="190" y="280" />
            </Array>
          </mxGeometry>
        </mxCell>
        <mxCell id="edX3QLqVGS8SwnU8owkq-20" value="8.proveriObrasci()" style="text;html=1;align=center;verticalAlign=middle;resizable=0;points=[];autosize=1;strokeColor=none;fillColor=none;" vertex="1" parent="1">
          <mxGeometry x="100" y="290" width="120" height="30" as="geometry" />
        </mxCell>
        <mxCell id="edX3QLqVGS8SwnU8owkq-21" value="" style="endArrow=classic;html=1;rounded=1;curved=0;exitX=0.75;exitY=0;exitDx=0;exitDy=0;entryX=1;entryY=0;entryDx=0;entryDy=0;" edge="1" parent="1">
          <mxGeometry width="50" height="50" relative="1" as="geometry">
            <mxPoint x="443" y="88" as="sourcePoint" />
            <mxPoint x="470" y="88" as="targetPoint" />
            <Array as="points">
              <mxPoint x="440" y="38" />
              <mxPoint x="460" y="18" />
              <mxPoint x="490" y="48" />
            </Array>
          </mxGeometry>
        </mxCell>
        <mxCell id="edX3QLqVGS8SwnU8owkq-23" value="9. izberiUloga()" style="text;html=1;align=center;verticalAlign=middle;resizable=0;points=[];autosize=1;strokeColor=none;fillColor=none;" vertex="1" parent="1">
          <mxGeometry x="410" y="-12" width="100" height="30" as="geometry" />
        </mxCell>
        <mxCell id="edX3QLqVGS8SwnU8owkq-24" value="&lt;u&gt;Mentor&lt;/u&gt;" style="rounded=0;whiteSpace=wrap;html=1;fillStyle=solid;fillColor=none;" vertex="1" parent="1">
          <mxGeometry x="360" y="280" width="110" height="30" as="geometry" />
        </mxCell>
        <mxCell id="edX3QLqVGS8SwnU8owkq-26" style="edgeStyle=orthogonalEdgeStyle;rounded=0;orthogonalLoop=1;jettySize=auto;html=1;exitX=0.5;exitY=1;exitDx=0;exitDy=0;entryX=0.582;entryY=-0.1;entryDx=0;entryDy=0;entryPerimeter=0;endArrow=none;startFill=0;" edge="1" parent="1" source="edX3QLqVGS8SwnU8owkq-4" target="edX3QLqVGS8SwnU8owkq-24">
          <mxGeometry relative="1" as="geometry" />
        </mxCell>
        <mxCell id="edX3QLqVGS8SwnU8owkq-27" value="" style="endArrow=none;html=1;rounded=0;exitX=0.9;exitY=1.033;exitDx=0;exitDy=0;exitPerimeter=0;entryX=0;entryY=0;entryDx=0;entryDy=0;" edge="1" parent="1" source="edX3QLqVGS8SwnU8owkq-1" target="edX3QLqVGS8SwnU8owkq-24">
          <mxGeometry width="50" height="50" relative="1" as="geometry">
            <mxPoint x="250" y="310" as="sourcePoint" />
            <mxPoint x="300" y="260" as="targetPoint" />
          </mxGeometry>
        </mxCell>
        <mxCell id="edX3QLqVGS8SwnU8owkq-28" value="" style="endArrow=classic;html=1;rounded=0;" edge="1" parent="1">
          <mxGeometry width="50" height="50" relative="1" as="geometry">
            <mxPoint x="330" y="230" as="sourcePoint" />
            <mxPoint x="280" y="180" as="targetPoint" />
          </mxGeometry>
        </mxCell>
        <mxCell id="edX3QLqVGS8SwnU8owkq-29" value="10. promeniTema()" style="text;html=1;align=center;verticalAlign=middle;resizable=0;points=[];autosize=1;strokeColor=none;fillColor=none;rotation=45;" vertex="1" parent="1">
          <mxGeometry x="290" y="180" width="120" height="30" as="geometry" />
        </mxCell>
        <mxCell id="edX3QLqVGS8SwnU8owkq-30" value="11. zakazhiDatum()" style="text;html=1;align=center;verticalAlign=middle;resizable=0;points=[];autosize=1;strokeColor=none;fillColor=none;rotation=45;" vertex="1" parent="1">
          <mxGeometry x="275" y="200" width="130" height="30" as="geometry" />
        </mxCell>
        <mxCell id="edX3QLqVGS8SwnU8owkq-31" value="&lt;u&gt;Komisija&lt;/u&gt;" style="rounded=0;whiteSpace=wrap;html=1;fillStyle=solid;fillColor=none;" vertex="1" parent="1">
          <mxGeometry x="490" y="410" width="110" height="30" as="geometry" />
        </mxCell>
        <mxCell id="edX3QLqVGS8SwnU8owkq-32" value="" style="endArrow=none;html=1;rounded=0;entryX=0.873;entryY=1.133;entryDx=0;entryDy=0;entryPerimeter=0;exitX=0.182;exitY=-0.133;exitDx=0;exitDy=0;exitPerimeter=0;" edge="1" parent="1" source="edX3QLqVGS8SwnU8owkq-31" target="edX3QLqVGS8SwnU8owkq-4">
          <mxGeometry width="50" height="50" relative="1" as="geometry">
            <mxPoint x="360" y="310" as="sourcePoint" />
            <mxPoint x="410" y="260" as="targetPoint" />
          </mxGeometry>
        </mxCell>
        <mxCell id="edX3QLqVGS8SwnU8owkq-33" value="" style="endArrow=none;html=1;rounded=0;entryX=0.75;entryY=1;entryDx=0;entryDy=0;exitX=0;exitY=0.5;exitDx=0;exitDy=0;" edge="1" parent="1" source="edX3QLqVGS8SwnU8owkq-31" target="edX3QLqVGS8SwnU8owkq-1">
          <mxGeometry width="50" height="50" relative="1" as="geometry">
            <mxPoint x="275" y="420" as="sourcePoint" />
            <mxPoint x="325" y="370" as="targetPoint" />
            <Array as="points">
              <mxPoint x="460" y="440" />
            </Array>
          </mxGeometry>
        </mxCell>
        <mxCell id="edX3QLqVGS8SwnU8owkq-35" value="" style="endArrow=none;html=1;rounded=0;entryX=0.75;entryY=1;entryDx=0;entryDy=0;exitX=0;exitY=0;exitDx=0;exitDy=0;" edge="1" parent="1" source="edX3QLqVGS8SwnU8owkq-31" target="edX3QLqVGS8SwnU8owkq-24">
          <mxGeometry width="50" height="50" relative="1" as="geometry">
            <mxPoint x="360" y="310" as="sourcePoint" />
            <mxPoint x="410" y="260" as="targetPoint" />
          </mxGeometry>
        </mxCell>
        <mxCell id="edX3QLqVGS8SwnU8owkq-36" value="" style="endArrow=classic;html=1;rounded=0;" edge="1" parent="1">
          <mxGeometry width="50" height="50" relative="1" as="geometry">
            <mxPoint x="430" y="320" as="sourcePoint" />
            <mxPoint x="460" y="370" as="targetPoint" />
          </mxGeometry>
        </mxCell>
        <mxCell id="edX3QLqVGS8SwnU8owkq-37" value="12. IzberiKomisija()" style="text;html=1;align=center;verticalAlign=middle;resizable=0;points=[];autosize=1;strokeColor=none;fillColor=none;rotation=60;" vertex="1" parent="1">
          <mxGeometry x="370" y="350" width="130" height="30" as="geometry" />
        </mxCell>
        <mxCell id="edX3QLqVGS8SwnU8owkq-38" value="" style="endArrow=classic;html=1;rounded=0;" edge="1" parent="1">
          <mxGeometry width="50" height="50" relative="1" as="geometry">
            <mxPoint x="325" y="310" as="sourcePoint" />
            <mxPoint x="275" y="260" as="targetPoint" />
          </mxGeometry>
        </mxCell>
        <mxCell id="edX3QLqVGS8SwnU8owkq-39" value="13. proveriDatum()" style="text;html=1;align=center;verticalAlign=middle;resizable=0;points=[];autosize=1;strokeColor=none;fillColor=none;rotation=45;" vertex="1" parent="1">
          <mxGeometry x="240" y="308" width="120" height="30" as="geometry" />
        </mxCell>
        <mxCell id="edX3QLqVGS8SwnU8owkq-40" value="14. staviOcena()" style="text;html=1;align=center;verticalAlign=middle;resizable=0;points=[];autosize=1;strokeColor=none;fillColor=none;rotation=45;" vertex="1" parent="1">
          <mxGeometry x="225" y="330" width="110" height="30" as="geometry" />
        </mxCell>
      </root>
    </mxGraphModel>
  </diagram>
</mxfile>
